<svg width="169" height="178" viewBox="0 0 169 178" fill="none" xmlns="http://www.w3.org/2000/svg">
<g id="undraw_confirmed_f581 1" clip-path="url(#clip0_63_3247)">
<path id="Vector" d="M120.186 149.374L121.857 178C121.857 178 51.1454 117.977 42.3359 100.415C33.5265 82.853 50.109 39.4102 50.109 39.4102L86.9014 57.4343L120.186 149.374Z" fill="#9F616A"/>
<path id="Vector_2" d="M11.762 27.394L0.879759 28.3184C0.879759 28.3184 -4.82049 39.4102 12.7984 40.3345L11.762 27.394Z" fill="#9F616A"/>
<path id="Vector_3" d="M11.762 44.4939L0.879759 45.4182C0.879759 45.4182 -4.82049 56.51 12.7984 57.4343L11.762 44.4939Z" fill="#9F616A"/>
<path id="Vector_4" d="M11.762 62.9802L0.879759 63.9045C0.879759 63.9045 -4.82049 74.9963 12.7984 75.9207L11.762 62.9802Z" fill="#9F616A"/>
<path id="Vector_5" d="M14.8711 81.4666L3.98889 82.3909C3.98889 82.3909 -1.71136 93.4827 15.9076 94.407L14.8711 81.4666Z" fill="#9F616A"/>
<path id="Vector_6" d="M6.46411 31.8499H7.28983V11.6761C7.28983 10.1428 7.62846 8.62446 8.2864 7.20785C8.94433 5.79124 9.90867 4.50408 11.1244 3.41985C12.3401 2.33563 13.7833 1.47557 15.3717 0.888794C16.9601 0.302015 18.6626 1.17477e-06 20.3818 0H68.306C70.0252 -3.13263e-06 71.7277 0.302006 73.3161 0.88878C74.9044 1.47555 76.3477 2.33561 77.5634 3.41983C78.7791 4.50405 79.7435 5.79121 80.4014 7.20781C81.0594 8.62442 81.398 10.1427 81.398 11.6761V122.351C81.398 123.885 81.0594 125.403 80.4014 126.82C79.7435 128.236 78.7791 129.523 77.5634 130.608C76.3477 131.692 74.9045 132.552 73.3161 133.139C71.7277 133.725 70.0253 134.027 68.306 134.027H20.3819C16.9097 134.027 13.5797 132.797 11.1244 130.608C8.6692 128.418 7.28985 125.448 7.28984 122.351V46.21H6.46411V31.8499Z" fill="#3F3D56"/>
<path id="Vector_7" d="M19.8536 3.03761H26.1093C25.8216 3.66663 25.7118 4.3491 25.7895 5.02489C25.8673 5.70068 26.1302 6.34905 26.555 6.91289C26.9799 7.47673 27.5537 7.93873 28.226 8.25819C28.8982 8.57765 29.6482 8.74476 30.41 8.74482H57.8651C58.6268 8.74477 59.3768 8.57765 60.0491 8.25819C60.7213 7.93873 61.2952 7.47673 61.72 6.91289C62.1449 6.34905 62.4078 5.70068 62.4855 5.02489C62.5632 4.34909 62.4534 3.66662 62.1657 3.0376H68.0086C70.6016 3.0376 73.0884 3.95626 74.9219 5.59149C76.7555 7.22672 77.7855 9.44458 77.7855 11.7571V122.27C77.7855 123.415 77.5326 124.549 77.0413 125.607C76.55 126.665 75.8298 127.626 74.9219 128.436C74.0141 129.245 72.9362 129.888 71.75 130.326C70.5639 130.764 69.2925 130.99 68.0086 130.99H19.8536C18.5697 130.99 17.2983 130.764 16.1122 130.326C14.926 129.888 13.8481 129.245 12.9403 128.436C12.0324 127.626 11.3122 126.665 10.8209 125.607C10.3295 124.549 10.0767 123.415 10.0767 122.27V11.7572C10.0767 10.6121 10.3295 9.47823 10.8209 8.42033C11.3122 7.36242 12.0324 6.40119 12.9403 5.5915C13.8481 4.78182 14.926 4.13954 16.1122 3.70134C17.2983 3.26314 18.5697 3.03761 19.8536 3.03761Z" fill="white"/>
<path id="Vector_8" d="M54.2482 33.998H33.614V38.4388H54.2482V33.998Z" fill="#087F5B"/>
<path id="Vector_9" d="M55.2305 53.0796H32.6316V57.5203H55.2305V53.0796Z" fill="#E5E5E5"/>
<path id="Vector_10" d="M69.1503 62.6187H18.7117V67.0594H69.1503V62.6187Z" fill="#E5E5E5"/>
<path id="Vector_11" d="M69.1503 72.158H18.7117V76.5987H69.1503V72.158Z" fill="#E5E5E5"/>
<path id="Vector_12" d="M169 164.283L110.998 105.268L108.925 67.3706L87.1604 35.0195L80.942 21.1548C80.942 21.1548 66.4323 22.5413 78.351 48.8843L83.2739 62.9801C78.8363 71.5044 76.5373 80.7894 76.5373 90.1877V122.488C76.5373 130.094 117.177 171.522 121.907 177.851L169 164.283Z" fill="#9F616A"/>
<path id="Vector_13" opacity="0.2" d="M82.6483 37.7608L86.9751 35.8644L86.8276 35.5966L82.8299 37.349L76.7949 23.238L76.4827 23.3445L82.6483 37.7608Z" fill="black"/>
<path id="Vector_14" opacity="0.2" d="M0.937605 28.1779L0.822021 28.4578L7.2317 30.5635L7.34728 30.2837L0.937605 28.1779Z" fill="black"/>
<path id="Vector_15" opacity="0.2" d="M0.937605 45.4726L0.822021 45.7524L7.2317 47.8582L7.34728 47.5784L0.937605 45.4726Z" fill="black"/>
<path id="Vector_16" opacity="0.2" d="M0.937605 63.9602L0.822021 64.24L7.2317 66.3457L7.34728 66.0659L0.937605 63.9602Z" fill="black"/>
<path id="Vector_17" opacity="0.2" d="M4.29577 82.4529L4.15112 82.7217L7.27173 84.0574L7.41637 83.7887L4.29577 82.4529Z" fill="black"/>
<path id="Vector_18" d="M43.9567 114.922C51.9392 114.922 58.4104 109.151 58.4104 102.031C58.4104 94.9121 51.9392 89.1409 43.9567 89.1409C35.9741 89.1409 29.5029 94.9121 29.5029 102.031C29.5029 109.151 35.9741 114.922 43.9567 114.922Z" fill="#087F5B"/>
<path id="Vector_19" d="M42.5792 107.473L38.2534 102.512L40.769 100.767L42.8172 103.116L49.7372 96.6011L52.0512 98.5563L42.5792 107.473Z" fill="white"/>
</g>
<defs>
<clipPath id="clip0_63_3247">
<rect width="169" height="178" fill="white"/>
</clipPath>
</defs>
</svg>
