<svg width="185" height="120" viewBox="0 0 185 120" fill="none" xmlns="http://www.w3.org/2000/svg">
<g id="undraw_questions_g2px (1) 1" clip-path="url(#clip0_63_1623)">
<path id="Vector" d="M94.4832 119.746C100.047 119.746 104.558 115.594 104.558 110.472C104.558 105.351 100.047 101.199 94.4832 101.199C88.919 101.199 84.4083 105.351 84.4083 110.472C84.4083 115.594 88.919 119.746 94.4832 119.746Z" fill="#087F5B"/>
<path id="Vector_2" d="M154.671 119.225C160.307 117.667 166.3 116.042 170.77 112.338C174.764 109.028 177.461 103.974 175.806 99.0106C174.155 94.0571 169.208 90.7541 164.101 89.1113C161.205 88.1796 158.174 87.6626 155.145 87.2566C151.852 86.8152 148.545 86.4535 145.239 86.1055C131.853 84.6963 118.417 83.8354 104.93 83.5229C98.2751 83.3686 91.6215 83.3723 84.9657 83.4613C79.0217 83.5407 72.7615 83.5387 67.2473 81.2134C62.9593 79.4052 59.0674 76.1154 57.8726 71.7923C56.4934 66.8019 59.0373 61.72 62.6866 58.1058C64.6102 56.2007 66.8583 54.5973 69.1775 53.123C71.6935 51.5235 74.2972 50.0373 76.9572 48.65C82.1964 45.919 87.6738 43.5948 93.3326 41.7014C96.1241 40.7672 98.9571 39.9611 101.815 39.2175C104.228 38.5896 106.648 37.9608 108.98 37.1054C113.488 35.4516 117.776 32.6502 118.922 28.0576C120.009 23.705 118.177 18.9798 114.966 15.7463C111.251 12.0053 105.649 10.3654 100.278 10.1001C94.2491 9.8022 88.3588 11.1911 82.6918 12.9538C76.6476 14.8338 70.7337 16.9956 64.5618 18.5184C58.4415 20.027 52.2028 21.0944 45.9023 21.7109C42.818 22.0132 39.6405 22.3545 36.5379 22.1231C33.9376 21.9292 31.3506 21.2253 29.4342 19.5267C27.791 18.0702 26.8121 16.0686 27.1486 13.9562C27.2098 13.5725 27.843 13.7357 27.7822 14.117C27.3726 16.6883 29.2715 19.0577 31.6116 20.2714C34.3161 21.6742 37.607 21.6761 40.6181 21.5157C47.1468 21.1527 53.6313 20.2899 60.0044 18.9362C66.2667 17.6197 72.3054 15.7377 78.3372 13.7272C84.0658 11.8178 89.9226 9.95427 96.0427 9.54071C101.353 9.18186 106.939 9.89394 111.565 12.4483C115.631 14.6932 118.621 18.437 119.574 22.7331C120.505 26.9312 119.215 31.1567 115.763 34.0862C112.188 37.1195 107.287 38.4163 102.719 39.6106C96.9253 41.1254 91.256 42.8962 85.7685 45.1953C80.2061 47.5192 74.8716 50.2797 69.8238 53.4461C64.9515 56.5107 60.1431 60.3669 58.6021 65.8342C57.8842 68.3809 58.0168 71.082 59.2178 73.4875C60.2858 75.6264 62.0446 77.4256 64.0936 78.8133C68.9823 82.1243 75.1437 82.8042 81.0488 82.8718C87.681 82.9477 94.3134 82.7417 100.948 82.8419C114.468 83.0462 127.961 83.8037 141.427 85.1144C144.801 85.4431 148.17 85.8065 151.536 86.2044C154.563 86.5625 157.601 86.9182 160.577 87.554C165.869 88.6846 171.018 90.8585 174.307 94.9883C175.767 96.7785 176.672 98.8998 176.924 101.126C177.154 103.449 176.536 105.777 175.395 107.843C172.869 112.417 168.138 115.327 163.114 117.238C160.423 118.262 157.632 119.038 154.846 119.808C154.44 119.92 154.267 119.337 154.671 119.225Z" fill="#F2F2F2"/>
<path id="Vector_3" d="M27.5729 18.8488C30.4759 18.8488 32.8293 16.6826 32.8293 14.0106C32.8293 11.3385 30.4759 9.17236 27.5729 9.17236C24.6698 9.17236 22.3164 11.3385 22.3164 14.0106C22.3164 16.6826 24.6698 18.8488 27.5729 18.8488Z" fill="#F2F2F2"/>
<path id="Vector_4" d="M64.0397 28.0214C66.9427 28.0214 69.2961 25.8552 69.2961 23.1832C69.2961 20.5111 66.9427 18.345 64.0397 18.345C61.1366 18.345 58.7832 20.5111 58.7832 23.1832C58.7832 25.8552 61.1366 28.0214 64.0397 28.0214Z" fill="#F2F2F2"/>
<path id="Vector_5" d="M94.9213 9.67642C97.8243 9.67642 100.178 7.51028 100.178 4.83821C100.178 2.16614 97.8243 0 94.9213 0C92.0182 0 89.6648 2.16614 89.6648 4.83821C89.6648 7.51028 92.0182 9.67642 94.9213 9.67642Z" fill="#F2F2F2"/>
<path id="Vector_6" d="M114.195 30.2389C117.098 30.2389 119.451 28.0728 119.451 25.4007C119.451 22.7286 117.098 20.5625 114.195 20.5625C111.292 20.5625 108.938 22.7286 108.938 25.4007C108.938 28.0728 111.292 30.2389 114.195 30.2389Z" fill="#F2F2F2"/>
<path id="Vector_7" d="M88.1317 54.0268C91.0348 54.0268 93.3882 51.8606 93.3882 49.1886C93.3882 46.5165 91.0348 44.3503 88.1317 44.3503C85.2286 44.3503 82.8752 46.5165 82.8752 49.1886C82.8752 51.8606 85.2286 54.0268 88.1317 54.0268Z" fill="#F2F2F2"/>
<path id="Vector_8" d="M55.0598 65.5175C57.9629 65.5175 60.3163 63.3513 60.3163 60.6793C60.3163 58.0072 57.9629 55.8411 55.0598 55.8411C52.1567 55.8411 49.8033 58.0072 49.8033 60.6793C49.8033 63.3513 52.1567 65.5175 55.0598 65.5175Z" fill="#F2F2F2"/>
<path id="Vector_9" d="M90.1029 83.4591C93.006 83.4591 95.3594 81.293 95.3594 78.6209C95.3594 75.9489 93.006 73.7827 90.1029 73.7827C87.1998 73.7827 84.8464 75.9489 84.8464 78.6209C84.8464 81.293 87.1998 83.4591 90.1029 83.4591Z" fill="#F2F2F2"/>
<path id="Vector_10" d="M127.774 93.5387C130.677 93.5387 133.031 91.3726 133.031 88.7005C133.031 86.0284 130.677 83.8623 127.774 83.8623C124.871 83.8623 122.518 86.0284 122.518 88.7005C122.518 91.3726 124.871 93.5387 127.774 93.5387Z" fill="#F2F2F2"/>
<path id="Vector_11" d="M171.797 91.3212C174.7 91.3212 177.053 89.1551 177.053 86.483C177.053 83.8109 174.7 81.6448 171.797 81.6448C168.894 81.6448 166.541 83.8109 166.541 86.483C166.541 89.1551 168.894 91.3212 171.797 91.3212Z" fill="#F2F2F2"/>
<path id="Vector_12" d="M93.404 13.709C77.6583 13.8113 64.7659 25.5887 64.5422 40.0805C64.5401 40.2143 64.5392 41.1551 64.5393 42.3855C64.5394 44.1897 65.3181 45.9199 66.704 47.1957C68.09 48.4714 69.9698 49.1883 71.9299 49.1885C72.9015 49.1883 73.8636 49.0119 74.7612 48.6693C75.6587 48.3267 76.4741 47.8247 77.1608 47.192C77.8475 46.5593 78.392 45.8082 78.7632 44.9817C79.1344 44.1552 79.3251 43.2694 79.3242 42.3751C79.3235 41.5381 79.323 40.9588 79.323 40.9232C79.3225 38.6835 79.9554 36.4823 81.1595 34.536C82.3636 32.5898 84.0974 30.9656 86.1904 29.8232C88.2833 28.6808 90.6633 28.0595 93.0962 28.0205C95.5292 27.9815 97.9312 28.5261 100.066 29.6007C102.201 30.6754 103.995 32.243 105.272 34.1495C106.549 36.056 107.265 38.2356 107.349 40.4739C107.433 42.7123 106.883 44.9322 105.753 46.9155C104.622 48.8987 102.95 50.5768 100.901 51.7848L100.903 51.7877C100.903 51.7877 90.3843 58.0209 87.1773 66.5716L87.18 66.5722C86.6161 68.3239 86.3303 70.1414 86.3316 71.9684C86.3316 72.7194 86.3796 79.2905 86.4724 84.6238C86.5048 86.4641 87.3219 88.2188 88.7474 89.5095C90.1729 90.8001 92.0925 91.5232 94.0921 91.5228C95.0968 91.5228 96.0916 91.3399 97.0193 90.9846C97.9469 90.6294 98.7891 90.1088 99.4973 89.4529C100.206 88.7969 100.766 88.0185 101.146 87.1625C101.526 86.3065 101.719 85.3897 101.713 84.4649C101.68 79.5805 101.663 73.8931 101.663 73.4803C101.663 68.2299 107.166 62.9986 111.686 59.5871C116.891 55.6587 120.637 50.3052 122.141 44.2663C122.474 43.023 122.658 41.7498 122.689 40.4696C122.689 36.939 121.93 33.4433 120.455 30.1838C118.981 26.9244 116.821 23.9657 114.099 21.4782C111.376 18.9908 108.146 17.0236 104.595 15.6902C101.043 14.3568 97.2397 13.6834 93.404 13.709Z" fill="#087F5B"/>
<path id="Vector_13" d="M184.739 120H0.260761C0.191728 120 0.125592 119.975 0.076849 119.93C0.0281059 119.885 0.000732422 119.824 0.000732422 119.76C0.000732422 119.697 0.0281059 119.636 0.076849 119.591C0.125592 119.546 0.191728 119.52 0.260761 119.52H184.739C184.808 119.52 184.875 119.545 184.924 119.59C184.973 119.635 185 119.696 185 119.76C185 119.824 184.973 119.885 184.924 119.93C184.875 119.975 184.808 120 184.739 120Z" fill="#3F3D56"/>
<path id="Vector_14" d="M137.642 55.0338C141.271 55.0338 144.213 52.3261 144.213 48.986C144.213 45.6459 141.271 42.9382 137.642 42.9382C134.013 42.9382 131.072 45.6459 131.072 48.986C131.072 52.3261 134.013 55.0338 137.642 55.0338Z" fill="#2F2E41"/>
<path id="Vector_15" d="M125.501 117.353H122.816L121.538 107.82H125.501L125.501 117.353Z" fill="#A0616A"/>
<path id="Vector_16" d="M120.898 116.646H126.076V119.647H117.637C117.637 119.253 117.721 118.863 117.885 118.499C118.049 118.135 118.289 117.804 118.592 117.525C118.895 117.247 119.254 117.025 119.65 116.875C120.045 116.724 120.469 116.646 120.898 116.646Z" fill="#2F2E41"/>
<path id="Vector_17" d="M146.307 117.353H143.622L142.345 107.82H146.308L146.307 117.353Z" fill="#A0616A"/>
<path id="Vector_18" d="M141.704 116.646H146.883V119.647H138.444C138.444 119.253 138.528 118.863 138.692 118.499C138.856 118.135 139.096 117.804 139.399 117.525C139.702 117.247 140.061 117.025 140.457 116.875C140.852 116.724 141.276 116.646 141.704 116.646Z" fill="#2F2E41"/>
<path id="Vector_19" d="M136.644 55.0691C139.615 55.0691 142.023 52.8523 142.023 50.1178C142.023 47.3833 139.615 45.1665 136.644 45.1665C133.673 45.1665 131.264 47.3833 131.264 50.1178C131.264 52.8523 133.673 55.0691 136.644 55.0691Z" fill="#A0616A"/>
<path id="Vector_20" d="M139.85 71.0422L142.257 65.952C142.842 64.7579 143.009 63.4262 142.736 62.1407C142.464 60.8553 141.764 59.6794 140.735 58.7753C140.523 58.5829 140.299 58.4031 140.062 58.2371C138.875 57.3819 137.411 56.9158 135.903 56.9126C134.889 56.9162 133.888 57.1211 132.968 57.5133C132.89 57.5456 132.813 57.5799 132.734 57.6141C132.583 57.6807 132.434 57.7532 132.289 57.8278C131.347 58.3261 130.544 59.0214 129.947 59.8576C129.35 60.6938 128.974 61.6476 128.851 62.6418L127.789 70.8345C127.521 71.4776 117.99 94.701 121.323 112.431C121.359 112.62 121.459 112.794 121.61 112.927C121.76 113.061 121.953 113.146 122.16 113.171L125.539 113.594C125.786 113.625 126.037 113.569 126.24 113.437C126.444 113.305 126.585 113.107 126.637 112.883L132.307 88.0041C132.342 87.8496 132.433 87.7104 132.564 87.6088C132.696 87.5072 132.86 87.4491 133.032 87.4437C133.203 87.4384 133.372 87.4861 133.511 87.5793C133.649 87.6725 133.75 87.8058 133.796 87.9578L141.808 114.12C141.865 114.31 141.988 114.478 142.159 114.598C142.329 114.717 142.538 114.782 142.752 114.782C142.816 114.781 142.88 114.776 142.943 114.765L147.071 114.034C147.311 113.992 147.526 113.87 147.673 113.691C147.82 113.511 147.889 113.288 147.866 113.064C147.259 106.837 144.035 75.6445 139.85 71.0422Z" fill="#2F2E41"/>
<path id="Vector_21" d="M115.738 54.2383C115.701 54.5326 115.734 54.831 115.836 55.1122C115.937 55.3935 116.104 55.6508 116.326 55.8662C116.547 56.0815 116.817 56.2496 117.116 56.3585C117.415 56.4675 117.737 56.5147 118.059 56.4968L121.065 63.1478L123.34 60.0444L120.136 54.2043C120.067 53.7093 119.804 53.2547 119.396 52.9264C118.988 52.5982 118.463 52.4192 117.921 52.4234C117.379 52.4276 116.857 52.6147 116.455 52.9492C116.053 53.2836 115.798 53.7423 115.738 54.2383Z" fill="#A0616A"/>
<path id="Vector_22" d="M136.345 77.7392C136.665 77.7041 136.973 77.6048 137.246 77.4484C137.52 77.2921 137.753 77.0824 137.929 76.8342C138.105 76.586 138.219 76.3053 138.265 76.0119C138.31 75.7185 138.285 75.4196 138.191 75.136L144.517 70.8948L140.709 69.582L135.285 73.8108C134.778 73.9874 134.359 74.329 134.107 74.7709C133.856 75.2128 133.789 75.7244 133.919 76.2086C134.05 76.6928 134.369 77.1161 134.817 77.3982C135.264 77.6803 135.808 77.8016 136.345 77.7392Z" fill="#A0616A"/>
<path id="Vector_23" d="M126.032 67.582C125.79 67.5818 125.548 67.5598 125.31 67.5165C124.734 67.4156 124.195 67.1861 123.738 66.848C123.282 66.51 122.923 66.0738 122.693 65.5779L118.48 60.8499C118.391 60.75 118.326 60.6337 118.29 60.5088C118.254 60.3839 118.247 60.2533 118.27 60.1258C118.293 59.9982 118.346 59.8767 118.424 59.7693C118.502 59.662 118.604 59.5712 118.724 59.5032L121.721 57.7955C121.831 57.7325 121.955 57.6902 122.083 57.6712C122.212 57.6522 122.343 57.6567 122.469 57.6847C122.596 57.7126 122.715 57.7633 122.82 57.8339C122.926 57.9045 123.015 57.9936 123.082 58.096L126.051 62.5983L131.737 58.7305C132.19 58.512 132.713 58.4507 133.211 58.5578C133.709 58.665 134.148 58.9334 134.448 59.314C134.749 59.6946 134.891 60.162 134.848 60.6308C134.805 61.0997 134.58 61.5386 134.214 61.8675L128.539 66.6325C127.872 67.241 126.971 67.5822 126.032 67.582Z" fill="#2F2E41"/>
<path id="Vector_24" d="M141.396 74.6926C141.389 74.6926 141.381 74.6926 141.373 74.6924C141.235 74.6893 141.099 74.6595 140.974 74.605C140.849 74.5504 140.738 74.4724 140.648 74.3758L137.984 71.5146C137.893 71.4171 137.826 71.303 137.786 71.1799C137.747 71.0568 137.736 70.9274 137.755 70.8002C137.775 70.6731 137.823 70.5511 137.897 70.4423C137.971 70.3336 138.069 70.2405 138.185 70.1694L143.175 67.1077L138.654 62.1057C138.392 61.7022 138.295 61.2251 138.383 60.7616C138.47 60.298 138.736 59.879 139.132 59.581C139.528 59.283 140.026 59.126 140.537 59.1386C141.048 59.1513 141.537 59.3327 141.915 59.6498L147.409 64.5913C147.841 64.9549 148.171 65.4096 148.371 65.9164C148.57 66.4232 148.633 66.967 148.554 67.5011C148.475 68.0352 148.256 68.5437 147.916 68.9828C147.577 69.4219 147.126 69.7786 146.604 70.0223L142.114 74.4077C142.022 74.4976 141.91 74.5692 141.787 74.6182C141.664 74.6672 141.531 74.6925 141.396 74.6926Z" fill="#2F2E41"/>
<path id="Vector_25" d="M135.276 64.1495C135.233 64.1495 135.19 64.147 135.148 64.142C134.962 64.1213 134.787 64.052 134.643 63.9423C134.499 63.8326 134.392 63.6873 134.335 63.5234L132.333 57.8729C132.283 57.73 132.291 57.5753 132.355 57.4373C132.419 57.2992 132.535 57.1873 132.682 57.1221L132.747 57.0938C132.806 57.068 132.864 57.0425 132.924 57.0181C133.858 56.6195 134.874 56.4116 135.903 56.4087C137.239 56.411 138.546 56.7723 139.662 57.4482C139.812 57.5399 139.916 57.682 139.953 57.8439C139.99 58.0059 139.956 58.1747 139.859 58.314L136.103 63.7303C136.015 63.8589 135.893 63.9648 135.748 64.0381C135.604 64.1115 135.441 64.1498 135.276 64.1495Z" fill="#E6E6E6"/>
<path id="Vector_26" d="M142.823 46.2861C144.01 46.2861 144.973 45.4 144.973 44.3071C144.973 43.2141 144.01 42.3281 142.823 42.3281C141.635 42.3281 140.672 43.2141 140.672 44.3071C140.672 45.4 141.635 46.2861 142.823 46.2861Z" fill="#2F2E41"/>
<path id="Vector_27" d="M135.452 42.1318C133.942 42.1318 132.493 42.6841 131.425 43.667C130.358 44.6499 129.758 45.9831 129.758 47.3732V49.5907H132.721L134.138 47.3732L134.563 49.5907H143.556L141.147 47.3732C141.147 45.9831 140.547 44.6499 139.479 43.667C138.411 42.6841 136.962 42.1318 135.452 42.1318Z" fill="#2F2E41"/>
<path id="Vector_28" d="M143.928 42.9517C144.165 42.2674 144.658 41.6821 145.318 41.2988C145.978 40.9155 146.764 40.7587 147.537 40.856C148.907 41.0668 149.991 42.0806 150.636 43.2128C151.282 44.3451 151.58 45.6123 152.014 46.827C152.448 48.0416 153.063 49.2629 154.159 50.0492C155.254 50.8355 156.935 51.0488 158.011 50.2399C157.888 51.0829 157.48 51.869 156.846 52.487C156.211 53.1049 155.381 53.5236 154.473 53.6836C153.566 53.8437 152.626 53.7371 151.788 53.3789C150.95 53.0207 150.256 52.429 149.803 51.6876C149.235 50.7579 149.089 49.6683 148.92 48.6131C148.752 47.558 148.533 46.4662 147.855 45.6013C147.178 44.7363 145.909 44.1714 144.832 44.5653L143.928 42.9517Z" fill="#2F2E41"/>
<path id="Vector_29" d="M74.0167 45.9707C72.0566 45.9705 70.1768 45.2537 68.7909 43.978C67.4049 42.7022 66.6262 40.972 66.6261 39.1678C66.626 37.9373 66.627 36.9966 66.629 36.8628C66.6913 32.6482 67.8445 28.508 69.9929 24.7856C66.4631 29.2333 64.5222 34.5808 64.4388 40.0882C64.4368 40.222 64.4358 41.1628 64.4359 42.3933C64.436 44.1974 65.2147 45.9277 66.6007 47.2034C67.9867 48.4792 69.8664 49.196 71.8265 49.1962C73.4372 49.1957 75.0037 48.7112 76.2879 47.8165C77.5722 46.9217 78.5041 45.6656 78.942 44.239C77.5887 45.3559 75.8344 45.9728 74.0167 45.9707Z" fill="#3F3D56"/>
<path id="Vector_30" d="M93.905 28.0433C96.171 28.1429 98.3769 28.7472 100.333 29.8044C102.29 30.8615 103.938 32.3399 105.137 34.1126C106.336 35.8853 107.049 37.8993 107.216 39.9817C107.383 42.0642 106.999 44.1528 106.095 46.0682C107.402 44.656 108.362 43.0011 108.911 41.2163C109.459 39.4316 109.583 37.5589 109.274 35.726C108.965 33.8932 108.23 32.1432 107.12 30.5953C106.01 29.0475 104.55 27.7383 102.84 26.7569C101.13 25.7755 99.21 25.145 97.2114 24.9084C95.2127 24.6718 93.182 24.8346 91.2579 25.3859C89.3338 25.9371 87.5614 26.8637 86.0617 28.1025C84.5619 29.3414 83.37 30.8633 82.5671 32.5645C83.9547 31.0621 85.6986 29.8732 87.6643 29.0893C89.6301 28.3054 91.7652 27.9475 93.905 28.0433Z" fill="#3F3D56"/>
<path id="Vector_31" d="M96.1789 88.3051C94.1793 88.3055 92.2597 87.5824 90.8342 86.2917C89.4088 85.0011 88.5916 83.2463 88.5592 81.4061C88.4665 76.0728 88.4185 69.5017 88.4185 68.7507C88.4172 66.9237 88.7029 65.1061 89.2668 63.3545L89.2642 63.3539C89.5972 62.4746 89.9993 61.6189 90.4675 60.7935C89.0304 62.5562 87.8866 64.5063 87.074 66.5793L87.0767 66.5799C86.5127 68.3316 86.227 70.1492 86.2283 71.9761C86.2283 72.7271 86.2763 79.2982 86.369 84.6316C86.4015 86.4718 87.2186 88.2265 88.644 89.5172C90.0695 90.8079 91.9891 91.531 93.9887 91.5306C95.6374 91.5303 97.2415 91.038 98.5605 90.1276C99.8795 89.2172 100.842 87.9377 101.304 86.481C99.9033 87.6568 98.0749 88.3075 96.1789 88.3051Z" fill="#3F3D56"/>
<path id="Vector_32" d="M27.7149 117.444L30.3998 117.444L31.6774 107.911L27.7142 107.912L27.7149 117.444Z" fill="#FFB8B8"/>
<path id="Vector_33" d="M35.5785 119.739L27.1395 119.739L27.1394 116.738L32.3178 116.738C33.1826 116.738 34.0119 117.054 34.6234 117.617C35.2349 118.18 35.5785 118.943 35.5785 119.739Z" fill="#2F2E41"/>
<path id="Vector_34" d="M18.078 117.444L20.763 117.444L22.0405 107.911L18.0774 107.912L18.078 117.444Z" fill="#FFB8B8"/>
<path id="Vector_35" d="M25.9417 119.739L17.5027 119.739L17.5025 116.738L22.681 116.738C23.5457 116.738 24.3751 117.054 24.9866 117.617C25.5981 118.18 25.9416 118.943 25.9417 119.739Z" fill="#2F2E41"/>
<path id="Vector_36" d="M20.4245 114.513L17.8018 114.386C17.6665 114.379 17.534 114.348 17.412 114.294C17.2899 114.24 17.1807 114.164 17.0907 114.071C17.0007 113.978 16.9317 113.869 16.8876 113.751C16.8435 113.634 16.8253 113.509 16.834 113.384L19.9688 81.439L34.4045 85.0244L35.7954 84.6752L31.446 112.955C31.409 113.168 31.2942 113.363 31.1206 113.508C30.9471 113.652 30.7252 113.738 30.4915 113.751L27.6642 113.872C27.5228 113.879 27.3814 113.859 27.2487 113.814C27.1161 113.768 26.9952 113.697 26.8937 113.607C26.7922 113.516 26.7123 113.407 26.659 113.286C26.6057 113.165 26.5802 113.035 26.5841 112.905L27.0964 95.9318C27.0988 95.8534 27.0692 95.7769 27.0133 95.7175C26.9575 95.6581 26.8796 95.6201 26.7948 95.611C26.7101 95.6019 26.6248 95.6224 26.5556 95.6683C26.4864 95.7142 26.4384 95.7824 26.4211 95.8592L21.4807 113.763C21.4341 113.976 21.3088 114.167 21.1264 114.303C20.9439 114.44 20.7154 114.515 20.48 114.514C20.4616 114.514 20.4431 114.514 20.4245 114.513Z" fill="#2F2E41"/>
<path id="Vector_37" d="M28.197 55.3008C31.1679 55.3008 33.5763 53.084 33.5763 50.3495C33.5763 47.615 31.1679 45.3982 28.197 45.3982C25.226 45.3982 22.8176 47.615 22.8176 50.3495C22.8176 53.084 25.226 55.3008 28.197 55.3008Z" fill="#FFB8B8"/>
<path id="Vector_38" d="M19.2408 64.8961L19.8322 76.6424L20.046 80.9158C20.0546 81.1019 20.1232 81.2814 20.2431 81.4313C20.3631 81.5812 20.5289 81.6948 20.7194 81.7576L34.5912 86.3828C34.7032 86.4211 34.822 86.4403 34.9415 86.4393C35.0781 86.4399 35.2135 86.4152 35.3395 86.3666C35.4655 86.3179 35.5796 86.2465 35.675 86.1564C35.7703 86.0663 35.8449 85.9594 35.8944 85.8422C35.9439 85.725 35.9672 85.5998 35.9629 85.4741L35.3942 64.3538C35.3569 62.621 34.6639 60.9545 33.4347 59.6416C32.2055 58.3287 30.5172 57.4516 28.6608 57.1616C28.5266 57.1428 28.3901 57.1239 28.2536 57.1072C27.1024 56.9757 25.934 57.0779 24.8304 57.4067C23.7268 57.7355 22.7149 58.283 21.8659 59.0104C20.9867 59.7547 20.296 60.6676 19.8423 61.6846C19.3887 62.7017 19.1834 63.798 19.2408 64.8961Z" fill="#CCCCCC"/>
<path id="Vector_39" d="M41.2177 84.039C40.8896 83.9453 40.5899 83.7823 40.3424 83.563C40.0949 83.3437 39.9065 83.0742 39.7923 82.776C39.678 82.4778 39.6411 82.1592 39.6845 81.8455C39.7278 81.5318 39.8502 81.2318 40.0419 80.9694L35.3378 75.212L39.3971 74.9807L43.2419 80.4836C43.6535 80.7765 43.9399 81.1934 44.0509 81.6613C44.1619 82.1291 44.0904 82.618 43.8489 83.0422C43.6074 83.4663 43.2114 83.7987 42.7302 83.981C42.2491 84.1632 41.7136 84.1838 41.2177 84.039Z" fill="#FFB8B8"/>
<path id="Vector_40" d="M37.9103 79.9274C37.7856 79.8808 37.6723 79.812 37.5767 79.7248C37.4812 79.6377 37.4054 79.534 37.3537 79.4197L30.2666 63.8781C30.1276 63.5738 30.055 63.2472 30.0531 62.9171C30.0512 62.587 30.12 62.2598 30.2556 61.9542C30.3912 61.6486 30.5909 61.3705 30.8432 61.136C31.0956 60.9014 31.3957 60.7149 31.7264 60.5871C32.0571 60.4594 32.4119 60.3929 32.7706 60.3914C33.1292 60.3899 33.4847 60.4535 33.8166 60.5785C34.1485 60.7035 34.4504 60.8875 34.7051 61.12C34.9597 61.3524 35.1621 61.6288 35.3007 61.9333L42.3877 77.4751C42.4925 77.7055 42.4936 77.9648 42.391 78.196C42.2883 78.4273 42.0902 78.6116 41.8401 78.7085L38.6938 79.9239C38.5699 79.9722 38.4369 79.9973 38.3024 79.9979C38.1679 79.9985 38.0346 79.9745 37.9103 79.9274Z" fill="#CCCCCC"/>
<path id="Vector_41" d="M26.4675 79.3792L33.2745 67.3827C33.4057 67.1519 33.6311 66.9786 33.901 66.9006C34.171 66.8226 34.4635 66.8464 34.7145 66.9667L44.5948 71.7162C44.8454 71.837 45.0338 72.0444 45.1185 72.2929C45.2032 72.5414 45.1774 72.8107 45.0467 73.0417L38.2398 85.0382C38.1085 85.2689 37.8831 85.4423 37.6132 85.5202C37.3432 85.5982 37.0507 85.5745 36.7997 85.4541L26.9194 80.7046C26.6688 80.5838 26.4804 80.3764 26.3957 80.1279C26.311 79.8794 26.3368 79.6101 26.4675 79.3792Z" fill="#3F3D56"/>
<path id="Vector_42" d="M31.0325 73.8983C30.9115 73.6023 30.717 73.3365 30.4646 73.1221C30.2121 72.9076 29.9087 72.7505 29.5785 72.6631C29.2484 72.5758 28.9006 72.5607 28.563 72.619C28.2254 72.6773 27.9072 72.8075 27.634 72.9991L21.1119 69.0168L21.1008 72.7603L27.296 75.9681C27.638 76.329 28.1071 76.5675 28.621 76.6418C29.135 76.7162 29.661 76.6216 30.1068 76.3747C30.5525 76.1278 30.8896 75.7443 31.0589 75.2914C31.2282 74.8386 31.2188 74.3454 31.0325 73.8983Z" fill="#FFB8B8"/>
<path id="Vector_43" d="M22.7864 74.7401L17.4562 70.8539C16.8796 70.6757 16.3585 70.3713 15.9378 69.967C15.5171 69.5626 15.2093 69.0703 15.0408 68.5324C14.8723 67.9944 14.8481 67.4269 14.9704 66.8784C15.0926 66.33 15.3577 65.8171 15.7427 65.3837L20.5824 59.5456C20.9187 59.1674 21.3917 58.9131 21.9149 58.8294C22.4381 58.7457 22.9766 58.8381 23.4319 59.0897C23.8872 59.3413 24.2289 59.7353 24.3945 60.1997C24.5602 60.6641 24.5388 61.1678 24.3341 61.6189L20.5048 67.3844L26.1323 69.8412C26.2632 69.8983 26.3794 69.9803 26.4732 70.0819C26.5671 70.1834 26.6365 70.3021 26.6768 70.4301C26.7171 70.5582 26.7275 70.6926 26.7072 70.8246C26.6869 70.9566 26.6364 71.0831 26.559 71.1958L24.2874 74.5048C24.2106 74.6164 24.1092 74.712 23.9897 74.7853C23.8702 74.8587 23.7353 74.908 23.5938 74.9303C23.5882 74.9312 23.5825 74.932 23.5769 74.9328C23.4378 74.9522 23.2959 74.945 23.1599 74.9119C23.024 74.8787 22.8968 74.8203 22.7864 74.7401Z" fill="#CCCCCC"/>
<path id="Vector_44" d="M24.1322 53.665C24.1092 53.6028 24.1018 53.5366 24.1108 53.4715C24.1198 53.4063 24.1449 53.3439 24.1842 53.2891C24.2234 53.2342 24.2758 53.1884 24.3373 53.155C24.3987 53.1217 24.4677 53.1017 24.5388 53.0967C24.6845 53.104 24.8271 53.1384 24.958 53.1978C25.0888 53.2572 25.2052 53.3404 25.3002 53.4424C25.4948 53.649 25.7215 53.8281 25.9728 53.974C26.233 54.0947 26.5859 54.0775 26.7343 53.8474C26.8736 53.6312 26.7781 53.3418 26.6938 53.0907C26.4792 52.4519 26.3591 51.7894 26.3368 51.1211C26.3125 50.3752 26.4269 49.5967 26.8756 49.0149C27.4546 48.264 28.49 47.9789 29.4699 47.9996C30.4498 48.0203 31.4138 48.2987 32.3844 48.4747C32.7195 48.5355 33.1134 48.5665 33.3375 48.3275C33.5758 48.0733 33.4883 47.662 33.3869 47.3188C33.1239 46.4283 32.8449 45.5075 32.2337 44.7883C31.573 44.041 30.6291 43.5519 29.5922 43.4195C28.5967 43.306 27.5862 43.4116 26.6437 43.7276C25.1081 44.1731 23.7569 45.0395 22.7708 46.2109C21.7543 47.4567 21.315 49.0223 21.5491 50.5654C21.7778 51.9093 22.5515 53.1235 23.7143 53.9631L24.1322 53.665Z" fill="#2F2E41"/>
<path id="Vector_45" d="M92.2635 117.484C90.8323 116.91 89.5655 116.038 88.5632 114.937C87.5609 113.835 86.8504 112.534 86.4879 111.137C86.1253 109.739 86.1206 108.283 86.4741 106.884C86.8276 105.484 87.5296 104.179 88.5248 103.072C87.3709 103.848 86.4095 104.84 85.7042 105.984C84.999 107.127 84.566 108.396 84.4341 109.705C84.3022 111.014 84.4744 112.335 84.9392 113.578C85.404 114.821 86.1508 115.96 87.1301 116.917C88.1093 117.875 89.2987 118.629 90.6191 119.131C91.9395 119.633 93.3608 119.871 94.7887 119.829C96.2166 119.787 97.6184 119.466 98.9011 118.887C100.184 118.308 101.318 117.484 102.229 116.471C100.808 117.426 99.1411 118.022 97.3927 118.2C95.6444 118.378 93.8759 118.131 92.2635 117.484Z" fill="#3F3D56"/>
</g>
<defs>
<clipPath id="clip0_63_1623">
<rect width="185" height="120" fill="white"/>
</clipPath>
</defs>
</svg>
