<svg xmlns="http://www.w3.org/2000/svg" width="24" height="24" fill="none"><g stroke="#ADB5BD" stroke-linecap="round" stroke-linejoin="round" stroke-width="1.5"><path d="M18.438 7.586H9.386c-2.189 0-3.562 1.55-3.562 3.745v5.92c0 2.195 1.366 3.745 3.562 3.745h9.05c2.198 0 3.564-1.55 3.564-3.745v-5.92c0-2.195-1.366-3.745-3.563-3.745Z" clip-rule="evenodd"/><path d="M9.372 12.048h9.075M18.085 7.584 16.5 4.94c-1.137-1.872-3.102-2.503-4.988-1.366L3.763 8.24c-1.879 1.128-2.257 3.164-1.128 5.05l3.06 5.066c.144.245.301.466.482.664v.007"/></g></svg>