<svg xmlns="http://www.w3.org/2000/svg" width="24" height="24" fill="none"><path stroke="#495057" stroke-linecap="round" stroke-linejoin="round" stroke-width="1.5" d="M5.52 20.274v-1.92"/><path stroke="#495057" stroke-linecap="round" stroke-linejoin="round" stroke-width="1.5" d="M6.255 18.354h-1.47a1.422 1.422 0 0 1-1.425-1.42v-4.841c0-.785.638-1.42 1.424-1.42h1.47c.788 0 1.426.635 1.426 1.42v4.84c0 .785-.638 1.42-1.425 1.42Z" clip-rule="evenodd"/><path stroke="#495057" stroke-linecap="round" stroke-linejoin="round" stroke-width="1.5" d="M5.52 10.674v-1.92M12 16.434v-2.4"/><path stroke="#495057" stroke-linecap="round" stroke-linejoin="round" stroke-width="1.5" d="M12.735 14.034h-1.47a1.422 1.422 0 0 1-1.425-1.42v-1.001c0-.785.638-1.42 1.425-1.42h1.47c.787 0 1.425.635 1.425 1.42v1c0 .785-.638 1.42-1.425 1.42Z" clip-rule="evenodd"/><path stroke="#495057" stroke-linecap="round" stroke-linejoin="round" stroke-width="1.5" d="M12 10.194v-5.28M18.48 13.554v-2.4"/><path stroke="#495057" stroke-linecap="round" stroke-linejoin="round" stroke-width="1.5" d="M19.215 11.154h-1.47a1.422 1.422 0 0 1-1.425-1.42V6.813c0-.784.638-1.419 1.424-1.419h1.47c.788 0 1.426.635 1.426 1.419v2.921c0 .784-.638 1.42-1.425 1.42Z" clip-rule="evenodd"/><path stroke="#495057" stroke-linecap="round" stroke-linejoin="round" stroke-width="1.5" d="M18.48 5.394v-2.4"/></svg>